<?xml version="1.0" encoding="iso-8859-1"?>
<!-- Uploaded to: SVG Repo, www.svgrepo.com, Generator: SVG Repo Mixer Tools -->
<svg height="800px" width="800px" version="1.1" id="Layer_1" xmlns="http://www.w3.org/2000/svg" xmlns:xlink="http://www.w3.org/1999/xlink" 
	 viewBox="0 0 512 512" xml:space="preserve">
<polygon style="fill:#AFB6BB;" points="493.656,256.005 428.145,288.75 428.145,256.005 428.145,223.25 "/>
<polygon style="fill:#F4661E;" points="29.644,256.005 13.272,223.25 122.453,223.25 122.453,256.005 122.453,288.75 13.272,288.75 
	"/>
<g>
	<path style="fill:#FFDE17;" d="M329.89,256.005h54.585c0,120.588-97.763,218.351-218.351,218.351v-49.128
		C166.123,425.229,329.89,403.389,329.89,256.005z"/>
	<path style="fill:#FFDE17;" d="M384.475,256.005H329.89c0-147.394-163.766-169.235-163.766-169.235V37.643
		C286.711,37.643,384.475,135.406,384.475,256.005z"/>
</g>
<path d="M512,256.007l-92.058-46.028v37.825h-27.429C388.179,126.66,288.298,29.441,166.123,29.441h-8.203v218.362h-27.265v-32.755
	H0.002l20.472,40.958L0,296.953h130.655v-32.745h27.265v218.351h8.203c122.175,0,222.056-97.215,226.39-218.351h27.429v37.811
	L512,256.007z M114.25,280.547H26.544l8.17-16.339h49.527v-16.405H34.714l-8.173-16.35h87.709V280.547z M174.326,46.004
	c109.371,4.215,197.553,92.424,201.772,201.8h-38.196c-2.472-59.533-31.983-107.398-85.762-138.773
	c-32.158-18.761-63.985-26.492-77.814-29.176V46.004z M174.326,96.617c14.002,2.981,41.842,10.421,69.548,26.583
	c49.169,28.685,75.238,70.582,77.617,124.603H174.326V96.617z M321.489,264.208c-2.371,53.848-28.293,95.657-77.179,124.337
	c-27.762,16.287-55.883,23.813-69.984,26.827V264.208H321.489z M174.326,465.997v-33.851c13.828-2.684,45.655-10.414,77.814-29.174
	c53.779-31.372,83.291-79.235,85.762-138.763h38.196C371.879,373.577,283.697,461.782,174.326,465.997z M436.347,236.522
	l38.964,19.483l-38.964,19.476L436.347,236.522L436.347,236.522z"/>
</svg>